HIERARCHY
ROOT pelvis
{
  OFFSET 0 100 0
  CHANNELS 6 Xposition Yposition Zposition Zrotation Xrotation Yrotation
  JOINT pelvis_right_femur
  {
    OFFSET -10.78128 -3.44521 -0.5502486
    CHANNELS 3 Zrotation Xrotation Yrotation
    JOINT right_femur_tibia
    {
      OFFSET -0.8047443 -44.0398 -0.1307829
      CHANNELS 3 Zrotation Xrotation Yrotation
      JOINT right_tibia_foot
      {
        OFFSET 3.006224 -47.83518 -5
        CHANNELS 3 Zrotation Xrotation Yrotation
        End Site
        {
          OFFSET 0 -5 15
        }
      }
    }
  }
  JOINT pelvis_left_femur
  {
    OFFSET 10.78128 -3.44521 -0.5502486
    CHANNELS 3 Zrotation Xrotation Yrotation
    JOINT left_femur_tibia
    {
      OFFSET 0.8047443 -44.0398 -0.1307829
      CHANNELS 3 Zrotation Xrotation Yrotation
      JOINT left_tibia_foot
      {
        OFFSET -4.370144 -48.10324 -4.275266
        CHANNELS 3 Zrotation Xrotation Yrotation
        End Site
        {
          OFFSET 0 -5 15
        }
      }
    }
  }
  JOINT pelvis_spine1
  {
    OFFSET 0 6.468898 -3.129235
    CHANNELS 3 Zrotation Xrotation Yrotation
    JOINT spine1
    {
      OFFSET 0 23.15396 4.99043
      CHANNELS 3 Zrotation Xrotation Yrotation
      JOINT spine2
      {
        OFFSET 0 20.79997 -5.064912
        CHANNELS 3 Zrotation Xrotation Yrotation
        JOINT neck
        {
          OFFSET 0 14.38658 9.616178
          CHANNELS 3 Zrotation Xrotation Yrotation
          End Site
          {
            OFFSET 0 20 0
          }
        }
      }
      JOINT right_manubrium
      {
        OFFSET -5.722621 16.35077 3.967754
        CHANNELS 3 Zrotation Xrotation Yrotation
        JOINT right_clavicle
        {
          OFFSET -13.16364 1.694482 -4.693211
          CHANNELS 3 Zrotation Xrotation Yrotation
          JOINT right_humerus
          {
            OFFSET -28.5034 -0.3100689 -2.792744
            CHANNELS 3 Zrotation Xrotation Yrotation
            JOINT right_radius
            {
              OFFSET -25.15693 0.02248979 -1.271978
              CHANNELS 3 Zrotation Xrotation Yrotation
              End Site
              {
                OFFSET -15 0 0
              }
            }
          }
        }
      }
      JOINT left_manubrium
      {
        OFFSET 5.722621 16.35077 3.967754
        CHANNELS 3 Zrotation Xrotation Yrotation
        JOINT left_clavicle
        {
          OFFSET 13.16364 1.694482 -4.693211
          CHANNELS 3 Zrotation Xrotation Yrotation
          JOINT left_humerus
          {
            OFFSET 29.39168 -1.063119 -2.237045
            CHANNELS 3 Zrotation Xrotation Yrotation
            JOINT left_radius
            {
              OFFSET 24.59957 -0.9528479 0.9047498
              CHANNELS 3 Zrotation Xrotation Yrotation
              End Site
              {
                OFFSET 15 -0 -0
              }
            }
          }
        }
      }
    }
  }
}
MOTION
Frames: 17
Frame Time: 0.0416666666667
0 103.5113 0 -0.34517 1.925454 0.21222 3.899015 -15.06338 8.390783 -0 36.184 -0 -5.737969 -17.2066 -1.561634 -5.777061 6.874636 -21.42993 -0 7.337373 -0 6.647815 -19.19722 25.04636 -3.272757 -6.700383 3.988622 3.269154 7.894779 -9.582105 0.1794776 21.12596 8.813652 3.315942 -25.01342 9.956039 6.577472 -18.25009 13.04032 83.48939 31.76443 -17.75214 -0 0 19.56673 -10.77034 10.41754 5.071676 10.65002 -22.36986 6.878598 -94.9332 17.26801 20.98573 0 0 -4.982871 11.1654 20.98406 -4.43081
0.2405593 103.4586 1.783966 -1.051821 2.137722 0.3368414 5.2045 -19.21496 8.384546 -0 37.51217 -0 -6.19049 -15.73997 -2.681134 -5.108745 7.853154 -21.12358 -0 7.250461 -0 5.870964 -20.42275 24.36183 -2.944553 -5.718817 3.594531 3.313955 7.838427 -9.76504 0.3035005 20.57269 9.096047 3.811992 -25.47825 10.05397 6.472661 -18.41827 12.97902 83.61543 31.8253 -17.9092 -0 0 19.39716 -10.92613 10.50453 5.393524 10.28288 -22.50509 6.280386 -94.10892 17.72692 20.28596 0 0 -6.911154 11.29196 19.79518 -3.877359
0.4489062 103.3548 3.818219 -1.650649 2.489902 0.2466832 6.316474 -23.58108 8.085488 -0 36.54765 -0 -6.594235 -13.69051 -3.3018 -4.578357 8.869249 -20.79392 -0 7.26648 -0 4.992317 -21.81287 23.4662 -2.655494 -4.741728 3.367698 3.561647 7.875352 -9.901925 0.2710535 19.89405 9.447917 4.266315 -25.94358 10.04878 6.363318 -18.30841 12.90596 83.90882 31.94812 -18.36303 -0 0 18.78937 -10.97429 10.62966 5.613828 10.15407 -22.44781 5.583485 -93.40215 18.09907 19.30033 0 0 -9.393965 11.49797 18.61401 -3.403394
0.7586067 103.128 6.105054 -2.139783 2.992908 -0.03057879 7.302326 -27.87952 7.598016 -0 33.71566 -0 -6.958233 -11.15202 -3.446147 -4.388404 10.01099 -20.45121 -0 7.324746 -0 4.09202 -23.5209 22.26047 -2.585543 -3.610881 3.142835 3.846155 7.851696 -10.08175 0.250535 19.01017 9.773594 4.742005 -26.38883 9.961109 6.362846 -18.20755 12.96884 84.1494 32.14224 -18.88423 -0 0 17.82074 -10.96696 10.78174 5.751756 10.01195 -22.46712 4.564827 -92.5462 18.46144 17.98426 0 0 -12.30662 11.69563 17.4501 -3.118058
1.012756 102.4992 8.858121 -2.262842 3.338295 -0.05901124 7.854734 -31.61302 7.056442 -0 29.05146 -0 -7.136061 -8.598769 -3.302918 -4.428228 11.10087 -19.98256 -0 7.920239 -0 3.023078 -24.87904 20.95266 -2.648319 -2.587033 3.067656 4.049002 7.974029 -10.05525 0.2852677 18.33485 10.05749 5.167059 -27.04209 10.02152 6.124946 -17.70783 12.7455 84.75091 32.31825 -19.82642 -0 0 16.5868 -10.92933 10.96204 5.864146 10.12154 -22.76137 3.826082 -91.53458 18.82854 16.43561 0 0 -15.42202 11.82035 16.31439 -2.92073
1.316619 101.6768 12.10574 -2.31097 3.796293 -0.007235891 8.090085 -34.61891 6.332311 -0 23.48527 -0 -7.220455 -6.284797 -2.911128 -4.623167 12.25528 -19.32022 -0 8.847567 -0 1.783706 -25.8847 19.42525 -2.810673 -1.667079 3.082824 4.169917 7.848723 -9.864051 0.4736557 17.76953 10.23474 5.626929 -27.82297 10.15435 5.783962 -17.61706 12.46399 85.04658 32.4984 -20.35984 -0 0 15.54459 -10.98022 11.12651 6.046498 10.35048 -23.0494 3.189419 -90.48575 19.1674 14.94023 0 0 -18.47098 11.85376 15.20545 -2.769439
1.604024 100.8722 15.7842 -2.333164 4.237976 0.2599275 8.272321 -36.7192 5.77228 -0 18.54448 -0 -7.356105 -4.685553 -2.417185 -4.731471 13.47435 -18.45341 -0 10.33237 -0 0.2818958 -26.31822 17.5698 -2.742987 -0.7572391 2.917848 4.230436 7.811779 -9.811773 0.5153999 17.28477 10.40326 5.968728 -28.66437 10.20466 5.498274 -17.24877 12.13458 85.57863 32.66993 -21.06655 -0 0 14.25956 -10.99622 11.31598 6.192933 10.43087 -23.38619 2.703503 -89.60328 19.36528 13.56135 0 0 -21.10363 11.87671 14.09004 -2.419936
1.778918 99.95862 19.94546 -2.633242 4.472786 1.017976 8.861816 -37.60918 5.904247 -0 15.54752 -0 -7.678719 -3.804274 -1.762026 -4.569961 14.4436 -17.50064 -0 12.97881 -0 -1.458616 -25.86382 15.56295 -2.289163 0.07391769 2.59229 4.343306 7.752726 -9.92896 0.5663187 16.90342 10.52313 6.243849 -29.42463 10.27575 5.242376 -16.60745 11.85202 86.39319 32.82941 -21.95681 -0 0 12.78984 -10.97292 11.53769 6.315839 10.21378 -23.83918 2.081091 -88.66815 19.53226 12.40567 0 0 -22.95447 11.78731 13.04199 -1.875748
1.994948 99.59385 25.10613 -3.083562 4.747507 1.891511 9.457601 -36.44989 6.325135 -0 15.30823 -0 -8.239642 -3.369183 -1.389483 -4.196769 15.05037 -16.34997 -0 17.20686 -0 -3.552621 -23.84188 13.33409 -1.534642 0.2569806 2.226217 4.381562 7.613752 -10.12976 0.6359863 16.689 10.48234 6.448525 -30.07485 10.18757 5.02972 -16.23366 11.57927 86.99014 32.98686 -22.521 -0 0 11.47165 -11.11898 11.74256 6.549214 9.574702 -23.7023 1.544848 -88.41796 19.64641 12.11703 0 0 -23.96915 11.52753 12.03511 -1.042339
2.236701 99.54772 30.75318 -3.546853 5.104887 2.662448 10.11381 -34.00874 6.892845 -0 16.57172 -0 -8.938082 -3.155613 -1.282773 -3.579491 15.18858 -15.6623 -0 22.87739 -0 -5.754412 -19.92255 11.0926 -0.5648894 0.1401531 1.974667 4.388309 7.448766 -10.22955 0.564233 16.54847 10.37009 6.44791 -30.3998 9.923131 4.916179 -15.74552 11.44102 87.70913 33.14257 -23.10817 -0 0 9.998729 -11.25585 11.98589 6.746305 8.808901 -23.39726 1.002283 -88.49931 19.81565 12.34431 0 0 -24.2877 11.10992 11.14557 -0.03979498
2.534303 99.85909 36.84183 -4.073781 4.809172 3.067183 10.74721 -30.98092 7.43033 -0 17.7086 -0 -9.65164 -3.626034 -1.467877 -3.37281 14.21693 -14.49161 -0 29.76983 -0 -7.973067 -14.85116 9.330427 0.6020495 -0.06156617 1.848406 4.337577 7.505066 -10.22327 0.3767425 16.65273 10.19751 6.262477 -30.19059 9.508163 4.694363 -15.25961 11.24497 88.31563 33.25072 -23.48575 -0 0 8.951443 -11.49719 12.23817 7.060826 8.021422 -22.8964 0.6094308 -88.82471 20.02074 13.08794 0 0 -23.99601 10.52411 10.34103 1.111229
2.847306 100.6367 43.13955 -4.171808 3.931351 2.619796 10.93968 -26.61623 7.515576 -0 18.26624 -0 -10.24843 -5.080854 -1.627021 -3.443813 11.76989 -13.43862 -0 38.77054 -0 -9.4278 -9.400527 8.322603 1.328541 -0.07024119 2.378252 4.068844 7.844034 -9.715099 0.1572872 17.12504 9.976768 6.003474 -29.56176 9.033948 4.682363 -15.13727 11.37234 88.60191 33.40752 -23.20289 -0 0 8.3167 -11.92082 12.4907 7.528043 7.061645 -22.34184 0.2569696 -89.30455 20.23064 14.22234 0 0 -23.3049 9.822392 9.627128 2.281596
3.048072 101.7068 49.10513 -3.800705 2.902924 2.427678 10.35172 -21.33803 7.032134 -0 17.51945 -0 -10.5413 -6.893018 -1.578956 -3.649341 7.759174 -11.89841 -0 47.66525 -0 -10.02163 -5.73007 8.796484 1.210758 0.1604825 3.267009 3.813955 8.234429 -9.151413 0.1114734 17.76716 9.58359 5.776789 -28.68729 8.496407 4.848809 -15.24279 11.70566 88.56321 33.59573 -22.34598 -0 0 8.17545 -12.56077 12.74116 8.146504 6.191412 -21.97563 -0.2957196 -89.67249 20.47524 15.39306 0 0 -22.44304 9.075257 8.992885 3.376208
3.371507 103.0314 54.78235 -2.588912 1.339095 2.378764 8.687143 -15.08991 6.103537 -0 15.77172 -0 -10.43509 -8.642246 -1.289522 -3.413931 1.144415 -10.60631 -0 54.85955 -0 -10.00691 -4.206024 9.58721 0.3618374 0.9412107 4.434933 3.374402 8.684065 -8.487387 0.07249589 18.57709 9.086566 5.519601 -27.568 7.827931 4.992258 -15.9146 12.01274 87.78295 33.85715 -20.65518 -0 0 8.6301 -13.48039 12.93539 8.916449 5.552837 -21.693 -0.6979734 -89.98964 20.6856 16.61722 0 0 -21.68764 8.33826 8.443621 4.312891
3.800832 104.4718 60.78118 -0.9853961 -0.7136713 1.529439 6.663019 -7.969368 5.196858 -0 13.5687 -0 -9.949897 -10.11719 -0.715377 -3.484157 -6.82867 -10.0603 -0 60.92008 -0 -9.227591 -3.636791 10.23476 -0.8371879 1.566909 5.934822 2.819509 9.51119 -7.521668 0.03792464 19.58227 8.561603 5.224833 -26.31147 7.190299 5.129955 -16.54908 12.16003 86.84029 34.02627 -18.75786 -0 0 9.441879 -14.61588 13.07456 9.825084 5.140823 -21.24159 -0.6927488 -90.31138 20.8273 18.18163 0 0 -20.87797 7.615325 7.96423 5.137294
4.177565 105.4397 66.25426 0.211135 -1.99937 1.423286 5.060692 -1.747027 4.436795 -0 10.97026 -0 -9.218076 -11.41112 -0.08465884 -3.117749 -14.10402 -8.788611 -0 60.51598 -0 -8.27861 -3.860684 11.798 -1.745981 1.892769 6.958312 2.180807 9.949875 -6.704317 0.05186699 20.68403 8.056455 4.905742 -24.90008 6.698141 4.807869 -17.73613 12.18741 85.25196 34.10138 -16.02294 -0 0 11.03566 -16.05981 13.04987 10.9736 5.086688 -20.81086 -0.5626256 -90.5578 20.92124 19.6929 0 0 -20.24633 6.930194 7.574301 5.836293
4.494791 105.6883 71.76586 0.7243564 -2.650292 1.541972 4.235659 3.602773 3.890797 -0 8.676293 -0 -8.425464 -12.80621 0.4878195 -1.951075 -20.14097 -6.687784 -0 54.18099 -0 -7.442641 -4.379705 14.39118 -2.111255 1.795542 7.445601 1.655303 10.16348 -6.101046 -0.01232418 21.51768 7.675782 4.479515 -23.70367 6.405499 4.148005 -18.86919 12.00654 83.52969 33.96425 -13.0955 -0 0 13.16545 -17.6824 12.89383 12.2684 5.326705 -20.25231 -0.4067015 -90.7402 21.0328 21.20366 0 0 -19.50861 6.211891 7.244051 6.528009
